<svg xmlns="http://www.w3.org/2000/svg" xmlns:xlink="http://www.w3.org/1999/xlink" width="512" zoomAndPan="magnify" viewBox="0 0 384 383.999986" height="512" preserveAspectRatio="xMidYMid meet" version="1.0"><defs><g/><clipPath id="30868c1eb8"><path d="M 0 18 L 381 18 L 381 366 L 0 366 Z M 0 18 " clip-rule="nonzero"/></clipPath><clipPath id="682d86987e"><rect x="0" width="60" y="0" height="30"/></clipPath></defs><g clip-path="url(#30868c1eb8)"><path fill="#150b52" d="M 343.507812 58.488281 C 333.6875 58.488281 324.4375 62.289062 317.527344 69.195312 L 306.820312 79.90625 C 273.617188 40.425781 225.519531 17.871094 173.75 17.871094 C 77.941406 17.871094 0 95.808594 0 191.683594 C 0 287.554688 77.941406 365.496094 173.75 365.496094 C 269.558594 365.496094 347.5625 287.554688 347.5625 191.683594 C 347.5625 177.109375 345.664062 162.597656 342.050781 148.59375 L 369.488281 121.15625 C 383.746094 106.835938 383.746094 83.515625 369.488281 69.195312 C 362.519531 62.289062 353.332031 58.488281 343.507812 58.488281 Z M 173.75 352.824219 C 84.910156 352.824219 12.671875 280.523438 12.671875 191.683594 C 12.671875 102.84375 84.910156 30.542969 173.75 30.542969 C 222.097656 30.542969 267.027344 51.707031 297.886719 88.839844 L 199.667969 186.992188 L 162.34375 149.734375 C 148.085938 135.414062 124.832031 135.476562 110.511719 149.734375 C 103.476562 156.769531 99.613281 166.082031 99.675781 175.90625 C 99.675781 185.664062 103.539062 194.789062 110.511719 201.632812 L 173.75 264.996094 C 180.785156 271.90625 189.972656 275.769531 199.667969 275.769531 C 209.300781 275.769531 218.550781 271.96875 225.773438 264.933594 L 331.597656 159.113281 C 333.75 169.820312 334.890625 180.722656 334.890625 191.683594 C 334.890625 280.523438 262.589844 352.824219 173.75 352.824219 Z M 173.75 352.824219 " fill-opacity="1" fill-rule="nonzero"/></g><g transform="matrix(1, 0, 0, 1, 133, 189)"><g clip-path="url(#682d86987e)"><g fill="#150b52" fill-opacity="1"><g transform="translate(0.280988, 22.839985)"><g><path d="M 6.4375 0.203125 C 5.363281 0.203125 4.414062 -0.015625 3.59375 -0.453125 C 2.78125 -0.898438 2.140625 -1.550781 1.671875 -2.40625 C 1.210938 -3.269531 0.984375 -4.304688 0.984375 -5.515625 C 0.984375 -6.722656 1.210938 -7.753906 1.671875 -8.609375 C 2.140625 -9.472656 2.78125 -10.128906 3.59375 -10.578125 C 4.40625 -11.023438 5.332031 -11.25 6.375 -11.25 C 8.707031 -11.25 10.203125 -10.40625 10.859375 -8.71875 L 8.953125 -7.359375 L 8.734375 -7.359375 C 8.515625 -7.867188 8.222656 -8.25 7.859375 -8.5 C 7.492188 -8.757812 7 -8.890625 6.375 -8.890625 C 5.582031 -8.890625 4.960938 -8.613281 4.515625 -8.0625 C 4.066406 -7.507812 3.84375 -6.660156 3.84375 -5.515625 C 3.84375 -4.378906 4.066406 -3.53125 4.515625 -2.96875 C 4.972656 -2.414062 5.613281 -2.140625 6.4375 -2.140625 C 7.03125 -2.140625 7.535156 -2.300781 7.953125 -2.625 C 8.367188 -2.945312 8.671875 -3.410156 8.859375 -4.015625 L 9.0625 -4.046875 L 11.03125 -2.953125 C 10.75 -2.023438 10.226562 -1.265625 9.46875 -0.671875 C 8.71875 -0.0859375 7.707031 0.203125 6.4375 0.203125 Z M 6.4375 0.203125 "/></g></g></g><g fill="#150b52" fill-opacity="1"><g transform="translate(11.64988, 22.839985)"><g><path d="M 1.59375 0 L 1.59375 -15.46875 L 4.359375 -15.46875 L 4.359375 -9.59375 L 4.578125 -9.546875 C 4.941406 -10.085938 5.390625 -10.503906 5.921875 -10.796875 C 6.453125 -11.097656 7.097656 -11.25 7.859375 -11.25 C 10.285156 -11.25 11.5 -9.863281 11.5 -7.09375 L 11.5 0 L 8.734375 0 L 8.734375 -6.75 C 8.734375 -7.5 8.582031 -8.046875 8.28125 -8.390625 C 7.976562 -8.734375 7.507812 -8.90625 6.875 -8.90625 C 6.101562 -8.90625 5.488281 -8.644531 5.03125 -8.125 C 4.582031 -7.613281 4.359375 -6.8125 4.359375 -5.71875 L 4.359375 0 Z M 1.59375 0 "/></g></g></g><g fill="#150b52" fill-opacity="1"><g transform="translate(24.568617, 22.839985)"><g><path d="M 10.90625 -4.890625 L 3.8125 -4.890625 C 3.894531 -3.929688 4.164062 -3.234375 4.625 -2.796875 C 5.09375 -2.359375 5.734375 -2.140625 6.546875 -2.140625 C 7.171875 -2.140625 7.679688 -2.253906 8.078125 -2.484375 C 8.472656 -2.722656 8.789062 -3.085938 9.03125 -3.578125 L 9.234375 -3.578125 L 11.078125 -2.390625 C 10.722656 -1.617188 10.179688 -0.992188 9.453125 -0.515625 C 8.722656 -0.0351562 7.753906 0.203125 6.546875 0.203125 C 5.398438 0.203125 4.410156 -0.0078125 3.578125 -0.4375 C 2.753906 -0.875 2.113281 -1.519531 1.65625 -2.375 C 1.207031 -3.226562 0.984375 -4.273438 0.984375 -5.515625 C 0.984375 -6.765625 1.21875 -7.816406 1.6875 -8.671875 C 2.164062 -9.535156 2.804688 -10.179688 3.609375 -10.609375 C 4.421875 -11.035156 5.332031 -11.25 6.34375 -11.25 C 7.90625 -11.25 9.097656 -10.832031 9.921875 -10 C 10.753906 -9.175781 11.171875 -7.960938 11.171875 -6.359375 C 11.171875 -5.773438 11.148438 -5.328125 11.109375 -5.015625 Z M 8.515625 -6.6875 C 8.492188 -7.519531 8.300781 -8.128906 7.9375 -8.515625 C 7.570312 -8.898438 7.039062 -9.09375 6.34375 -9.09375 C 4.9375 -9.09375 4.113281 -8.289062 3.875 -6.6875 Z M 8.515625 -6.6875 "/></g></g></g><g fill="#150b52" fill-opacity="1"><g transform="translate(36.557449, 22.839985)"><g><path d="M 6.4375 0.203125 C 5.363281 0.203125 4.414062 -0.015625 3.59375 -0.453125 C 2.78125 -0.898438 2.140625 -1.550781 1.671875 -2.40625 C 1.210938 -3.269531 0.984375 -4.304688 0.984375 -5.515625 C 0.984375 -6.722656 1.210938 -7.753906 1.671875 -8.609375 C 2.140625 -9.472656 2.78125 -10.128906 3.59375 -10.578125 C 4.40625 -11.023438 5.332031 -11.25 6.375 -11.25 C 8.707031 -11.25 10.203125 -10.40625 10.859375 -8.71875 L 8.953125 -7.359375 L 8.734375 -7.359375 C 8.515625 -7.867188 8.222656 -8.25 7.859375 -8.5 C 7.492188 -8.757812 7 -8.890625 6.375 -8.890625 C 5.582031 -8.890625 4.960938 -8.613281 4.515625 -8.0625 C 4.066406 -7.507812 3.84375 -6.660156 3.84375 -5.515625 C 3.84375 -4.378906 4.066406 -3.53125 4.515625 -2.96875 C 4.972656 -2.414062 5.613281 -2.140625 6.4375 -2.140625 C 7.03125 -2.140625 7.535156 -2.300781 7.953125 -2.625 C 8.367188 -2.945312 8.671875 -3.410156 8.859375 -4.015625 L 9.0625 -4.046875 L 11.03125 -2.953125 C 10.75 -2.023438 10.226562 -1.265625 9.46875 -0.671875 C 8.71875 -0.0859375 7.707031 0.203125 6.4375 0.203125 Z M 6.4375 0.203125 "/></g></g></g><g fill="#150b52" fill-opacity="1"><g transform="translate(47.92634, 22.839985)"><g><path d="M 1.59375 0 L 1.59375 -15.46875 L 4.359375 -15.46875 L 4.359375 -6.875 L 4.625 -6.875 L 7.828125 -11.03125 L 10.625 -11.03125 L 10.625 -10.796875 L 6.875 -5.96875 L 11.046875 -0.25 L 11.046875 0 L 8.125 0 L 4.625 -4.65625 L 4.359375 -4.65625 L 4.359375 0 Z M 1.59375 0 "/></g></g></g></g></g></svg>